<svg width="80" height="80" viewBox="0 0 80 80" fill="none" xmlns="http://www.w3.org/2000/svg">
<path d="M40.002 64.7559C43.3874 64.7559 46.5697 64.1042 49.5489 62.8008C52.545 61.5143 55.1771 59.737 57.4454 57.4688C59.7304 55.1836 61.5247 52.5514 62.8281 49.5723C64.1315 46.5762 64.7831 43.3854 64.7831 40C64.7831 36.6146 64.1315 33.4323 62.8281 30.4531C61.5247 27.457 59.7304 24.8249 57.4454 22.5566C55.1771 20.2715 52.545 18.4857 49.5489 17.1992C46.5527 15.8958 43.362 15.2441 39.9766 15.2441C36.5912 15.2441 33.4089 15.8874 30.4297 17.1738C27.4506 18.4603 24.8184 20.2461 22.5332 22.5312C20.265 24.8164 18.4792 27.457 17.1758 30.4531C15.8894 33.4323 15.2461 36.6146 15.2461 40C15.2461 43.3854 15.8894 46.5762 17.1758 49.5723C18.4792 52.5514 20.265 55.1836 22.5332 57.4688C24.8184 59.737 27.4506 61.5143 30.4297 62.8008C33.4258 64.1042 36.6166 64.7559 40.002 64.7559ZM40.002 60.4395C37.1752 60.4395 34.5261 59.9147 32.0547 58.8652C29.5834 57.8158 27.4082 56.36 25.5293 54.498C23.6674 52.6191 22.2116 50.444 21.1622 47.9727C20.1127 45.5013 19.5879 42.8438 19.5879 40C19.5879 37.1562 20.1127 34.4987 21.1622 32.0273C22.2116 29.556 23.6674 27.3893 25.5293 25.5273C27.3913 23.6484 29.558 22.1842 32.0293 21.1348C34.5007 20.0684 37.1498 19.5352 39.9766 19.5352C42.8204 19.5352 45.4778 20.0684 47.9492 21.1348C50.4205 22.1842 52.5872 23.6484 54.4492 25.5273C56.3281 27.3893 57.7924 29.556 58.8418 32.0273C59.9081 34.4987 60.4499 37.1562 60.4668 40C60.4668 42.8268 59.942 45.4759 58.8925 47.9473C57.843 50.4186 56.379 52.5938 54.5 54.4727C52.6211 56.3516 50.4459 57.8158 47.9746 58.8652C45.5032 59.9147 42.8458 60.4395 40.002 60.4395ZM3.76953 40C3.76953 44.0117 4.38737 47.8372 5.62304 51.4766C6.85872 55.1159 8.58528 58.4421 10.8028 61.4551C11.1921 61.9967 11.683 62.293 12.2754 62.3438C12.8848 62.4115 13.4434 62.2422 13.9512 61.8359C14.4082 61.4466 14.6622 60.9727 14.7129 60.4141C14.7806 59.8555 14.6283 59.3223 14.2559 58.8145C12.3262 56.1908 10.8197 53.2793 9.73633 50.0801C8.65299 46.8809 8.11133 43.5208 8.11133 40C8.11133 36.4622 8.65299 33.1022 9.73633 29.9199C10.8197 26.7207 12.3262 23.7923 14.2559 21.1348C14.6283 20.6439 14.7891 20.1191 14.7383 19.5605C14.6875 19.002 14.4252 18.528 13.9512 18.1387C13.4434 17.7324 12.8848 17.5632 12.2754 17.6309C11.683 17.6986 11.1921 17.9948 10.8028 18.5195C8.58528 21.5326 6.85872 24.8587 5.62304 28.498C4.38737 32.1374 3.76953 35.9714 3.76953 40ZM76.2344 40C76.2344 35.9714 75.6166 32.1374 74.3809 28.498C73.1451 24.8587 71.4187 21.5326 69.2012 18.5195C68.8119 17.9948 68.3125 17.6986 67.7032 17.6309C67.1107 17.5632 66.5606 17.7324 66.0527 18.1387C65.5788 18.528 65.3165 19.002 65.2657 19.5605C65.2318 20.1191 65.3926 20.6439 65.7481 21.1348C67.6947 23.7923 69.2012 26.7207 70.2676 29.9199C71.351 33.1022 71.8926 36.4622 71.8926 40C71.8926 43.5208 71.351 46.8809 70.2676 50.0801C69.2012 53.2793 67.6947 56.1908 65.7481 58.8145C65.3926 59.3223 65.2403 59.8555 65.2911 60.4141C65.3418 60.9727 65.5957 61.4466 66.0527 61.8359C66.5606 62.2422 67.1107 62.4115 67.7032 62.3438C68.3125 62.293 68.8119 61.9967 69.2012 61.4551C71.4187 58.4421 73.1451 55.1159 74.3809 51.4766C75.6166 47.8372 76.2344 44.0117 76.2344 40ZM29.3887 41.625C29.3887 41.9297 29.4987 42.1836 29.7188 42.3867C29.9388 42.5729 30.2012 42.666 30.5059 42.666H38.6816L34.3145 54.4219C34.1283 54.9297 34.1367 55.3444 34.3398 55.666C34.5598 55.9876 34.8731 56.1569 35.2793 56.1738C35.6856 56.1908 36.058 55.9961 36.3965 55.5898L49.6504 38.959C49.9213 38.6374 50.0566 38.3242 50.0566 38.0195C50.0566 37.6979 49.9467 37.444 49.7266 37.2578C49.5066 37.0547 49.2442 36.9531 48.9395 36.9531H40.7383L45.1309 25.1973C45.3171 24.6725 45.3001 24.2493 45.08 23.9277C44.86 23.6061 44.5468 23.4453 44.1406 23.4453C43.7512 23.4284 43.3874 23.6315 43.0489 24.0547L29.795 40.6855C29.524 40.9902 29.3887 41.3034 29.3887 41.625Z" fill="black"/>
</svg>
