<svg width="80" height="80" viewBox="0 0 80 80" fill="none" xmlns="http://www.w3.org/2000/svg">
<g clip-path="url(#clip0_1_1163)">
<path d="M12.8416 59.877C14.0265 61.4682 15.4738 62.7546 17.1834 63.7364C18.91 64.7351 20.7465 65.4037 22.6932 65.7422C24.6398 66.0808 26.561 66.0554 28.4568 65.6661C30.3527 65.2937 32.0708 64.5404 33.6111 63.4063C35.3715 62.1029 36.6495 60.5964 37.4451 58.8868C38.2576 57.1941 38.5538 55.4337 38.3338 53.6055C38.1307 51.7605 37.3859 49.9831 36.0994 48.2735C34.8976 46.6485 33.535 45.4467 32.0115 44.668C30.4881 43.8725 28.9308 43.5255 27.3396 43.627C25.7654 43.7286 24.2758 44.3126 22.8709 45.379C21.8891 46.1238 21.1782 46.9278 20.7381 47.7911C20.3149 48.6374 20.0102 49.4838 19.824 50.3301C19.6378 51.1596 19.4432 51.9213 19.24 52.6153C19.0369 53.3093 18.6561 53.8594 18.0975 54.2657C17.4542 54.7396 16.8279 55.0274 16.2186 55.129C15.6092 55.2305 15.0337 55.3067 14.492 55.3575C13.9503 55.4083 13.4425 55.6114 12.9686 55.9669C12.4607 56.3731 12.1561 56.9232 12.0545 57.6172C11.9699 58.3113 12.2322 59.0645 12.8416 59.877ZM18.0213 59.4708C17.852 59.3015 17.7674 59.1322 17.7674 58.963C17.7674 58.7937 17.8266 58.6498 17.9451 58.5313C18.0636 58.4297 18.2752 58.3282 18.5799 58.2266C18.9015 58.142 19.2654 58.015 19.6717 57.8458C20.0779 57.6596 20.4588 57.3803 20.8143 57.0079C21.4406 56.3985 21.8891 55.7383 22.16 55.0274C22.4477 54.2995 22.6932 53.5632 22.8963 52.8184C23.0994 52.0736 23.3702 51.3542 23.7088 50.6602C24.0473 49.9493 24.5721 49.323 25.283 48.7813C26.0786 48.155 26.9419 47.808 27.8729 47.7403C28.8038 47.6726 29.7264 47.8672 30.6404 48.3243C31.5545 48.7813 32.3839 49.4838 33.1287 50.4317C33.9581 51.515 34.4236 52.6491 34.5252 53.834C34.6437 55.002 34.4236 56.1446 33.865 57.2618C33.3064 58.362 32.4601 59.3523 31.326 60.2325C30.3611 60.9942 29.2947 61.5528 28.1268 61.9083C26.9757 62.2807 25.7908 62.4415 24.5721 62.3907C23.3533 62.3399 22.1769 62.0775 21.0428 61.6036C19.9087 61.1296 18.9015 60.4187 18.0213 59.4708ZM37.6736 53.834C39.0447 53.6817 40.3396 53.2585 41.5584 52.5645C42.7771 51.8705 44.0298 50.8718 45.3162 49.5684C46.6704 48.2143 48.1176 46.6316 49.658 44.8204C51.1984 43.0092 52.7472 41.1049 54.3045 39.1075C55.8787 37.0932 57.3768 35.1127 58.7986 33.1661C60.2374 31.2195 61.5408 29.4337 62.7088 27.8087C63.8768 26.1667 64.8331 24.8041 65.5779 23.7208C66.3396 22.6374 66.8136 21.9688 66.9998 21.7149C67.643 20.8347 67.9646 19.9376 67.9646 19.0235C67.9646 18.1094 67.7361 17.28 67.2791 16.5352C66.8221 15.7735 66.2127 15.1641 65.451 14.7071C64.7062 14.2501 63.8768 14.0215 62.9627 14.0215C62.0486 14.0215 61.143 14.3347 60.2459 14.961C59.992 15.1472 59.3234 15.6127 58.24 16.3575C57.1567 17.1023 55.7941 18.0587 54.1521 19.2266C52.5271 20.3946 50.7413 21.698 48.7947 23.1368C46.8481 24.5587 44.8676 26.0567 42.8533 27.6309C40.8559 29.1882 38.9516 30.737 37.1404 32.2774C35.3292 33.8178 33.7465 35.2735 32.3924 36.6446C31.1229 37.9311 30.1326 39.1752 29.4217 40.377C28.7277 41.5788 28.296 42.8484 28.1268 44.1856L32.1131 45.2774C32.1469 44.3464 32.4178 43.4154 32.9256 42.4844C33.4334 41.5534 34.212 40.5717 35.2615 39.5391C36.6157 38.2019 38.1814 36.7885 39.9588 35.2989C41.7361 33.7924 43.6066 32.2774 45.5701 30.754C47.5337 29.2305 49.4549 27.7748 51.3338 26.3868C53.2296 24.9818 54.9646 23.7208 56.5389 22.6036C58.1131 21.4695 59.3995 20.5469 60.3982 19.836C61.4139 19.1251 62.0148 18.7019 62.201 18.5665C62.4887 18.3464 62.7596 18.2872 63.0135 18.3887C63.2843 18.4734 63.462 18.6511 63.5467 18.9219C63.6482 19.1928 63.589 19.4805 63.3689 19.7852C63.2674 19.9545 62.8611 20.5469 62.1502 21.5626C61.4562 22.5613 60.5421 23.8477 59.408 25.4219C58.2908 26.9962 57.0298 28.7312 55.6248 30.627C54.2199 32.5228 52.7472 34.4525 51.2068 36.4161C49.6834 38.3796 48.1684 40.2585 46.6619 42.0528C45.1554 43.8301 43.742 45.379 42.4217 46.6993C41.3891 47.7318 40.4412 48.4851 39.5779 48.959C38.7316 49.433 37.8683 49.7208 36.9881 49.8223L37.6736 53.834ZM42.1678 47.461L45.4178 46.6231C45.3331 45.4213 44.9946 44.2449 44.4021 43.0938C43.8266 41.9258 43.0734 40.8679 42.1424 39.92C41.2114 38.9721 40.1788 38.2019 39.0447 37.6094C37.9106 37.0001 36.7426 36.6446 35.5408 36.543L34.449 39.793C35.2615 39.7761 36.1163 40.0046 37.0135 40.4786C37.9106 40.9525 38.7485 41.5788 39.5271 42.3575C40.3058 43.1361 40.9406 43.9825 41.4314 44.8965C41.9223 45.7937 42.1678 46.6485 42.1678 47.461Z" fill="black"/>
</g>
<defs>
<clipPath id="clip0_1_1163">
<rect width="80" height="80" fill="white"/>
</clipPath>
</defs>
</svg>
