<svg width="80" height="80" viewBox="0 0 80 80" fill="none" xmlns="http://www.w3.org/2000/svg">
<g clip-path="url(#clip0_1_1147)">
<path d="M41.4975 25.1211C40.9389 25.1211 40.4565 25.3158 40.0502 25.7051C39.6609 26.0944 39.4662 26.5684 39.4662 27.127V41.2949C39.4662 41.5996 39.5169 41.8874 39.6185 42.1582C39.7201 42.4121 39.8724 42.6745 40.0756 42.9453L46.347 51.2227C46.7702 51.7643 47.2527 52.0859 47.7943 52.1875C48.353 52.2721 48.8862 52.1367 49.394 51.7812C49.8679 51.4596 50.1217 51.028 50.1557 50.4863C50.2065 49.9277 50.0372 49.3945 49.6479 48.8867L41.1927 37.4863L43.5033 44.5957V27.127C43.5033 26.5684 43.3086 26.0944 42.9193 25.7051C42.5299 25.3158 42.0561 25.1211 41.4975 25.1211ZM42.4622 65.8984C46 65.8984 49.3262 65.2214 52.4408 63.8672C55.5723 62.513 58.3315 60.6426 60.7182 58.2559C63.1049 55.8691 64.9754 53.1185 66.3295 50.0039C67.6837 46.8724 68.3607 43.5378 68.3607 40C68.3607 36.4622 67.6837 33.1361 66.3295 30.0215C64.9754 26.89 63.1049 24.1309 60.7182 21.7441C58.3315 19.3574 55.5723 17.487 52.4408 16.1328C49.3262 14.7786 46 14.1016 42.4622 14.1016C38.9245 14.1016 35.5899 14.7786 32.4584 16.1328C29.3438 17.487 26.5932 19.3574 24.2065 21.7441C21.8198 24.1139 19.9493 26.8646 18.5952 29.9961C17.241 33.1107 16.5639 36.4368 16.5639 39.9746H20.8803C20.8803 36.9785 21.4304 34.1771 22.5307 31.5703C23.6479 28.9635 25.1967 26.6784 27.1772 24.7148C29.1577 22.7513 31.4512 21.2194 34.0579 20.1191C36.6647 19.002 39.4662 18.4434 42.4622 18.4434C45.4584 18.4434 48.2598 19.002 50.8666 20.1191C53.4734 21.2194 55.7585 22.7598 57.722 24.7402C59.7025 26.7038 61.2514 28.9889 62.3685 31.5957C63.4857 34.2025 64.0443 37.0039 64.0443 40C64.0443 42.9961 63.4857 45.806 62.3685 48.4297C61.2514 51.0365 59.7025 53.3301 57.722 55.3105C55.7585 57.2741 53.4734 58.8145 50.8666 59.9316C48.2598 61.0488 45.4584 61.599 42.4622 61.582C40.0417 61.5651 37.7481 61.1842 35.5815 60.4395C33.4148 59.7116 31.4258 58.679 29.6147 57.3418C27.8204 56.0046 26.28 54.4388 24.9936 52.6445C24.6043 52.1198 24.1303 51.7897 23.5717 51.6543C23.03 51.502 22.4884 51.5866 21.9467 51.9082C21.4389 52.2298 21.1257 52.6953 21.0073 53.3047C20.9057 53.9141 21.075 54.498 21.5151 55.0566C23.1231 57.2064 25.0105 59.0938 27.1772 60.7188C29.3438 62.3607 31.7221 63.6302 34.3119 64.5273C36.9018 65.4414 39.6185 65.8984 42.4622 65.8984ZM13.4409 35.0996C12.8315 35.0996 12.3744 35.2266 12.0698 35.4805C11.7651 35.7174 11.6212 36.0391 11.6381 36.4453C11.655 36.8516 11.8243 37.2917 12.1459 37.7656L17.8334 45.8398C18.2566 46.4323 18.739 46.7285 19.2807 46.7285C19.8224 46.7116 20.2963 46.4154 20.7026 45.8398L26.3901 37.7402C26.7117 37.2663 26.8725 36.8346 26.8725 36.4453C26.8894 36.0391 26.7455 35.7174 26.4409 35.4805C26.1362 35.2266 25.6876 35.0996 25.0952 35.0996H13.4409Z" fill="black"/>
</g>
<defs>
<clipPath id="clip0_1_1147">
<rect width="80" height="80" fill="white"/>
</clipPath>
</defs>
</svg>
