<svg width="80" height="80" viewBox="0 0 80 80" fill="none" xmlns="http://www.w3.org/2000/svg">
<g clip-path="url(#clip0_1_1135)">
<path d="M30.1249 33.2715H34.416C35.1777 33.2715 35.6516 32.916 35.8378 32.2052L38.0214 23.3946H35.8124L39.0117 38.9082C39.0963 39.3822 39.3164 39.7038 39.6718 39.8731C40.0442 40.0254 40.4166 40.0254 40.789 39.8731C41.1614 39.7208 41.4238 39.416 41.5761 38.959L45.1816 26.4923L43.1249 26.4415L44.4707 32.1289C44.6399 32.8906 45.1139 33.2715 45.8925 33.2715H49.8789C50.2512 33.2715 50.5644 33.1445 50.8183 32.8906C51.0722 32.6367 51.1992 32.3321 51.1992 31.9767C51.1992 31.6042 51.0722 31.291 50.8183 31.0371C50.5644 30.7832 50.2512 30.6562 49.8789 30.6562H46.1464L46.8066 31.1642L45.3593 25.5527C45.2408 25.1126 45.0039 24.825 44.6484 24.6896C44.2929 24.5372 43.9374 24.5456 43.582 24.7148C43.2265 24.8672 42.9726 25.1635 42.8203 25.6035L39.1386 37.6387H41.2714L38.123 22.125C38.0214 21.668 37.7929 21.3633 37.4374 21.2109C37.082 21.0417 36.718 21.0332 36.3457 21.1855C35.9733 21.3379 35.7363 21.6426 35.6347 22.0996L33.3496 31.4434L34.1113 30.6562H30.1249C29.7526 30.6562 29.4394 30.7917 29.1855 31.0625C28.9316 31.3165 28.8046 31.6212 28.8046 31.9767C28.8046 32.3321 28.9316 32.6367 29.1855 32.8906C29.4394 33.1445 29.7526 33.2715 30.1249 33.2715ZM30.3789 46.7794H49.6503C50.0904 46.7794 50.4544 46.627 50.7421 46.3223C51.0468 46.0177 51.1992 45.6453 51.1992 45.2052C51.1992 44.7651 51.0468 44.4011 50.7421 44.1133C50.4544 43.8086 50.0904 43.6562 49.6503 43.6562H30.3789C29.9218 43.6562 29.541 43.8086 29.2363 44.1133C28.9485 44.4011 28.8046 44.7651 28.8046 45.2052C28.8046 45.6453 28.9485 46.0177 29.2363 46.3223C29.541 46.627 29.9218 46.7794 30.3789 46.7794ZM30.3789 55.6406H39.4941C39.9511 55.6406 40.3235 55.4967 40.6113 55.209C40.916 54.9044 41.0683 54.532 41.0683 54.0919C41.0683 53.6517 40.916 53.2794 40.6113 52.9747C40.3235 52.67 39.9511 52.5177 39.4941 52.5177H30.3789C29.9218 52.5177 29.541 52.67 29.2363 52.9747C28.9485 53.2794 28.8046 53.6517 28.8046 54.0919C28.8046 54.532 28.9485 54.9044 29.2363 55.209C29.541 55.4967 29.9218 55.6406 30.3789 55.6406ZM18.6484 59.2715C18.6484 61.9291 19.3001 63.918 20.6035 65.2383C21.9238 66.5586 23.8958 67.2189 26.5195 67.2189H53.4843C56.108 67.2189 58.0716 66.5586 59.3749 65.2383C60.6953 63.918 61.3554 61.9291 61.3554 59.2715V20.754C61.3554 18.1133 60.6953 16.1243 59.3749 14.7871C58.0716 13.4499 56.108 12.7812 53.4843 12.7812H26.5195C23.8958 12.7812 21.9238 13.4499 20.6035 14.7871C19.3001 16.1243 18.6484 18.1133 18.6484 20.754V59.2715ZM22.7363 59.1954V20.8301C22.7363 19.5605 23.0664 18.5872 23.7265 17.9102C24.4036 17.2161 25.4023 16.8692 26.7226 16.8692H53.2812C54.6015 16.8692 55.5917 17.2161 56.2519 17.9102C56.929 18.5872 57.2675 19.5605 57.2675 20.8301V59.1954C57.2675 60.4649 56.929 61.4383 56.2519 62.1152C55.5917 62.7924 54.6015 63.131 53.2812 63.131H26.7226C25.4023 63.131 24.4036 62.7924 23.7265 62.1152C23.0664 61.4383 22.7363 60.4649 22.7363 59.1954Z" fill="black"/>
</g>
<defs>
<clipPath id="clip0_1_1135">
<rect width="80" height="80" fill="white"/>
</clipPath>
</defs>
</svg>
