<svg width="80" height="80" viewBox="0 0 80 80" fill="none" xmlns="http://www.w3.org/2000/svg">
<g clip-path="url(#clip0_1_1174)">
<path d="M6.90234 40C6.90234 43.0638 7.49479 45.7298 8.67968 47.998C9.88151 50.2663 11.5488 52.0267 13.6816 53.2793C15.8314 54.515 18.3112 55.1328 21.1211 55.1328C23.4232 55.1328 25.5729 54.6419 27.5703 53.6602C29.5677 52.6615 31.6159 51.1549 33.7148 49.1406L40.0117 43.0977L46.2832 49.1406C48.3821 51.1549 50.4303 52.6615 52.4277 53.6602C54.442 54.6419 56.5918 55.1328 58.8769 55.1328C61.6868 55.1328 64.1582 54.515 66.291 53.2793C68.4407 52.0267 70.108 50.2663 71.2929 47.998C72.4948 45.7298 73.0957 43.0638 73.0957 40C73.0957 36.9362 72.4948 34.2702 71.2929 32.002C70.108 29.7337 68.4407 27.9818 66.291 26.7461C64.1582 25.4935 61.6868 24.8672 58.8769 24.8672C56.5918 24.8672 54.442 25.3665 52.4277 26.3652C50.4303 27.347 48.3821 28.8451 46.2832 30.8594L40.0117 36.9023L33.7148 30.8594C31.6159 28.8451 29.5677 27.347 27.5703 26.3652C25.5729 25.3665 23.4232 24.8672 21.1211 24.8672C18.3112 24.8672 15.8314 25.4935 13.6816 26.7461C11.5488 27.9818 9.88151 29.7337 8.67968 32.002C7.49479 34.2702 6.90234 36.9362 6.90234 40ZM11.498 40C11.498 37.8503 11.9043 35.9883 12.7168 34.4141C13.5293 32.8398 14.6549 31.6211 16.0937 30.7578C17.5495 29.8945 19.2252 29.4629 21.1211 29.4629C22.7461 29.4629 24.3034 29.8607 25.7929 30.6562C27.2825 31.4349 28.8483 32.5859 30.4902 34.1094L36.7871 40L30.4648 45.8906C28.8398 47.4141 27.2825 48.5736 25.7929 49.3691C24.3034 50.1478 22.7461 50.5371 21.1211 50.5371C19.2252 50.5371 17.5495 50.1055 16.0937 49.2422C14.6549 48.3789 13.5293 47.1602 12.7168 45.5859C11.9043 43.9948 11.498 42.1328 11.498 40ZM43.2109 40L49.5078 34.1094C51.1497 32.5859 52.7155 31.4349 54.2051 30.6562C55.6946 29.8607 57.2519 29.4629 58.8769 29.4629C60.7728 29.4629 62.4401 29.8945 63.8789 30.7578C65.3346 31.6211 66.4687 32.8398 67.2812 34.4141C68.0937 35.9883 68.5 37.8503 68.5 40C68.5 42.1328 68.0937 43.9948 67.2812 45.5859C66.4687 47.1602 65.3346 48.3789 63.8789 49.2422C62.4401 50.1055 60.7728 50.5371 58.8769 50.5371C57.2519 50.5371 55.6946 50.1478 54.2051 49.3691C52.7155 48.5736 51.1582 47.4141 49.5332 45.8906L43.2109 40Z" fill="black"/>
</g>
<defs>
<clipPath id="clip0_1_1174">
<rect width="80" height="80" fill="white"/>
</clipPath>
</defs>
</svg>
