<svg width="80" height="80" viewBox="0 0 80 80" fill="none" xmlns="http://www.w3.org/2000/svg">
<g clip-path="url(#clip0_1_1155)">
<path d="M12.7831 25.1846V28.7646H67.2207V25.1846H12.7831ZM18.039 63.3721H61.9648C64.6393 63.3721 66.6367 62.7119 67.957 61.3916C69.2773 60.0882 69.9374 58.1331 69.9374 55.5264V24.499C69.9374 21.8923 69.2773 19.9287 67.957 18.6084C66.6367 17.2881 64.6393 16.6279 61.9648 16.6279H18.039C15.3815 16.6279 13.3841 17.2881 12.0468 18.6084C10.7265 19.9118 10.0664 21.8753 10.0664 24.499V55.5264C10.0664 58.1331 10.7265 60.0882 12.0468 61.3916C13.3841 62.7119 15.3815 63.3721 18.039 63.3721ZM18.0898 59.2842C16.8203 59.2842 15.847 58.9541 15.1699 58.2939C14.4928 57.6169 14.1542 56.6182 14.1542 55.2979V24.7275C14.1542 23.4072 14.4928 22.4085 15.1699 21.7314C15.847 21.0544 16.8203 20.7158 18.0898 20.7158H61.914C63.1666 20.7158 64.1315 21.0544 64.8085 21.7314C65.5026 22.4085 65.8496 23.4072 65.8496 24.7275V55.2979C65.8496 56.6182 65.5026 57.6169 64.8085 58.2939C64.1315 58.9541 63.1666 59.2842 61.914 59.2842H18.0898ZM40.0273 53.8506C40.569 53.8506 41.0429 53.6559 41.4492 53.2666C41.8554 52.8773 42.0585 52.4118 42.0585 51.8701V43.4912L41.8808 39.2256L44.0644 41.5107L47.3652 44.8115C47.5683 45.0146 47.7884 45.167 48.0253 45.2686C48.2623 45.3701 48.4993 45.4209 48.7363 45.4209C49.2779 45.4209 49.7265 45.2516 50.082 44.9131C50.4374 44.5745 50.6152 44.1429 50.6152 43.6182C50.6152 43.3304 50.5559 43.0765 50.4374 42.8564C50.3359 42.6195 50.1751 42.4079 49.955 42.2217L41.4999 34.3506C40.9921 33.8936 40.5012 33.665 40.0273 33.665C39.5533 33.665 39.0624 33.8936 38.5546 34.3506L30.0996 42.2217C29.8964 42.4079 29.7356 42.6195 29.6171 42.8564C29.4986 43.0765 29.4394 43.3304 29.4394 43.6182C29.4394 44.1429 29.6087 44.5745 29.9472 44.9131C30.3027 45.2516 30.7512 45.4209 31.2929 45.4209C31.8177 45.4209 32.2831 45.2178 32.6894 44.8115L35.9902 41.5107L38.1738 39.2256L38.0214 43.4912V51.8701C38.0214 52.4118 38.2161 52.8773 38.6054 53.2666C39.0117 53.6559 39.4856 53.8506 40.0273 53.8506Z" fill="black"/>
</g>
<defs>
<clipPath id="clip0_1_1155">
<rect width="80" height="80" fill="white"/>
</clipPath>
</defs>
</svg>
