<svg width="80" height="80" viewBox="0 0 80 80" fill="none" xmlns="http://www.w3.org/2000/svg">
<path d="M39.9863 11.3721C39.5801 11.3721 39.2246 11.5244 38.9199 11.8291C38.6321 12.1169 38.4883 12.4723 38.4883 12.8955V22.3154C38.4883 22.7555 38.6321 23.1195 38.9199 23.4072C39.2246 23.695 39.5801 23.8389 39.9863 23.8389C40.4264 23.8389 40.7903 23.695 41.0781 23.4072C41.3659 23.1195 41.5097 22.7555 41.5097 22.3154V12.8955C41.5097 12.4723 41.3659 12.1169 41.0781 11.8291C40.7903 11.5244 40.4264 11.3721 39.9863 11.3721ZM47.5019 12.1338C47.0957 11.9984 46.7148 12.0238 46.3594 12.21C46.0039 12.3962 45.7669 12.7262 45.6484 13.2002L44.7851 16.3232C44.6666 16.7295 44.709 17.1188 44.9121 17.4912C45.1152 17.8467 45.4199 18.0752 45.8261 18.1768C46.2324 18.2783 46.6133 18.236 46.9687 18.0498C47.3411 17.8467 47.5781 17.5335 47.6797 17.1104L48.5176 13.9873C48.636 13.5472 48.5937 13.1579 48.3906 12.8193C48.2044 12.4808 47.9082 12.2523 47.5019 12.1338ZM54.332 15.2061C53.9596 15.0029 53.5703 14.9521 53.164 15.0537C52.7747 15.1553 52.47 15.3838 52.25 15.7393L47.5527 23.9404C47.3157 24.3128 47.2565 24.7021 47.375 25.1084C47.4935 25.4977 47.7304 25.7939 48.0859 25.9971C48.4414 26.2171 48.8222 26.2764 49.2285 26.1748C49.6347 26.0563 49.9394 25.8109 50.1426 25.4385L54.8652 17.2627C55.0683 16.8903 55.1191 16.5094 55.0176 16.1201C54.916 15.7308 54.6875 15.4261 54.332 15.2061ZM60.4511 19.5986C60.1465 19.2939 59.7825 19.1501 59.3594 19.167C58.9531 19.167 58.6061 19.3109 58.3183 19.5986L56.0078 21.8838C55.7031 22.2054 55.5423 22.5693 55.5254 22.9756C55.5254 23.3649 55.6862 23.7119 56.0078 24.0166C56.3125 24.3382 56.6679 24.499 57.0742 24.499C57.4804 24.499 57.8275 24.3467 58.1152 24.042L60.375 21.7568C60.6966 21.4183 60.8659 21.0544 60.8828 20.665C60.8997 20.2588 60.7558 19.9033 60.4511 19.5986ZM64.8183 25.6924C64.5983 25.32 64.2851 25.083 63.8789 24.9814C63.4896 24.8799 63.1087 24.9307 62.7363 25.1338L54.5605 29.8564C54.1881 30.0596 53.9427 30.3643 53.8242 30.7705C53.7226 31.1768 53.7819 31.5661 54.0019 31.9385C54.2051 32.2939 54.5013 32.5309 54.8906 32.6494C55.2969 32.751 55.6862 32.6917 56.0586 32.4717L64.2597 27.749C64.6152 27.529 64.8437 27.2243 64.9453 26.835C65.0638 26.4456 65.0215 26.0648 64.8183 25.6924ZM67.916 32.5479C67.8144 32.1247 67.5775 31.8115 67.2051 31.6084C66.8327 31.4053 66.4603 31.3545 66.0879 31.4561L62.914 32.3193C62.5078 32.4378 62.2031 32.6748 62 33.0303C61.7969 33.3857 61.763 33.8005 61.8984 34.2744C62 34.596 62.2116 34.8669 62.5332 35.0869C62.8717 35.307 63.2695 35.3577 63.7265 35.2393L66.7988 34.376C67.2389 34.2575 67.5605 34.0205 67.7636 33.665C67.9668 33.3096 68.0176 32.9372 67.916 32.5479ZM68.6269 39.9873C68.6269 39.5641 68.4746 39.2087 68.1699 38.9209C67.8821 38.6331 67.5267 38.4893 67.1035 38.4893H57.6836C57.2435 38.4893 56.8795 38.6331 56.5918 38.9209C56.304 39.2087 56.1601 39.5641 56.1601 39.9873C56.1601 40.4105 56.304 40.7744 56.5918 41.0791C56.8795 41.3669 57.2435 41.5107 57.6836 41.5107H67.1035C67.5267 41.5107 67.8821 41.3669 68.1699 41.0791C68.4746 40.7744 68.6269 40.4105 68.6269 39.9873ZM67.916 47.5537C68.0345 47.1305 68.0006 46.7412 67.8144 46.3857C67.6282 46.0303 67.3151 45.7848 66.875 45.6494L63.7265 44.7607C63.3034 44.6592 62.914 44.71 62.5586 44.9131C62.2031 45.1162 61.9746 45.4209 61.873 45.8271C61.7715 46.2503 61.8138 46.6481 62 47.0205C62.2031 47.3929 62.5078 47.6299 62.914 47.7314L66.0371 48.5439C66.4772 48.6455 66.8665 48.6032 67.2051 48.417C67.5605 48.2139 67.7975 47.9261 67.916 47.5537ZM64.7929 54.3076C64.9961 53.9521 65.0469 53.5713 64.9453 53.165C64.8437 52.7588 64.6152 52.4541 64.2597 52.251L56.0586 47.5283C55.6862 47.3083 55.2969 47.2575 54.8906 47.376C54.5013 47.4775 54.2051 47.7061 54.0019 48.0615C53.7819 48.4339 53.7226 48.8232 53.8242 49.2295C53.9427 49.6188 54.1881 49.9235 54.5605 50.1436L62.7363 54.8662C63.1087 55.0693 63.4896 55.1201 63.8789 55.0186C64.2682 54.9001 64.5729 54.6631 64.7929 54.3076ZM60.4258 60.4521C60.7474 60.1305 60.8997 59.7581 60.8828 59.335C60.8828 58.9118 60.7474 58.5648 60.4765 58.2939L58.1406 56.0088C57.8359 55.721 57.472 55.5687 57.0488 55.5518C56.6426 55.5348 56.2786 55.6872 55.957 56.0088C55.6692 56.3304 55.5254 56.6859 55.5254 57.0752C55.5423 57.4645 55.7031 57.8115 56.0078 58.1162L58.2929 60.4014C58.6146 60.723 58.97 60.8838 59.3594 60.8838C59.7656 60.9007 60.1211 60.7568 60.4258 60.4521ZM54.3066 64.7939C54.679 64.5908 54.916 64.2861 55.0176 63.8799C55.1191 63.4736 55.0683 63.0928 54.8652 62.7373L50.1426 54.5615C49.9394 54.1722 49.6347 53.9268 49.2285 53.8252C48.8222 53.7236 48.4414 53.7744 48.0859 53.9775C47.7304 54.1976 47.4935 54.5107 47.375 54.917C47.2565 55.3063 47.3157 55.6872 47.5527 56.0596L52.25 64.2354C52.47 64.6077 52.7747 64.8447 53.164 64.9463C53.5534 65.0479 53.9342 64.9971 54.3066 64.7939ZM47.5019 67.9424C47.9759 67.8239 48.289 67.5785 48.4414 67.2061C48.6107 66.8506 48.6445 66.4782 48.5429 66.0889L47.7304 62.8896C47.6289 62.4834 47.3834 62.1787 46.9941 61.9756C46.6217 61.7725 46.2324 61.7301 45.8261 61.8486C45.386 61.9671 45.0729 62.2041 44.8867 62.5596C44.7005 62.932 44.6666 63.3128 44.7851 63.7021L45.6992 66.7998C45.8177 67.223 46.0293 67.5361 46.334 67.7393C46.6556 67.9593 47.0449 68.027 47.5019 67.9424ZM39.9863 68.6279C40.4264 68.6279 40.7903 68.4756 41.0781 68.1709C41.3659 67.8831 41.5097 67.5277 41.5097 67.1045V57.6846C41.5097 57.2445 41.3659 56.8805 41.0781 56.5928C40.7903 56.305 40.4264 56.1611 39.9863 56.1611C39.5801 56.1611 39.2246 56.305 38.9199 56.5928C38.6321 56.8805 38.4883 57.2445 38.4883 57.6846V67.1045C38.4883 67.5277 38.6321 67.8831 38.9199 68.1709C39.2246 68.4756 39.5801 68.6279 39.9863 68.6279ZM32.3691 67.917C32.8431 68.0693 33.2663 68.027 33.6386 67.79C34.011 67.57 34.248 67.2653 34.3496 66.876L35.2129 63.7529C35.3314 63.3467 35.289 62.9574 35.0859 62.585C34.8828 62.2295 34.5781 62.001 34.1719 61.8994C33.7656 61.7979 33.3763 61.8402 33.0039 62.0264C32.6484 62.2295 32.4199 62.5426 32.3183 62.9658L31.4804 66.0889C31.362 66.529 31.3704 66.9098 31.5058 67.2314C31.6582 67.5531 31.9459 67.7816 32.3691 67.917ZM25.6914 64.7939C26.0469 64.9971 26.4277 65.0479 26.834 64.9463C27.2402 64.8447 27.5449 64.6077 27.748 64.2354L32.4707 56.0596C32.6907 55.6872 32.7415 55.3063 32.623 54.917C32.5215 54.5107 32.2929 54.1976 31.9375 53.9775C31.5651 53.7744 31.1758 53.7236 30.7695 53.8252C30.3802 53.9268 30.0755 54.1722 29.8554 54.5615L25.1582 62.7373C24.9381 63.0928 24.8789 63.4652 24.9804 63.8545C25.0989 64.2607 25.3359 64.5739 25.6914 64.7939ZM19.5722 60.4268C19.8939 60.7314 20.2493 60.8838 20.6386 60.8838C21.0449 60.9007 21.3919 60.7653 21.6797 60.4775L23.9902 58.1924C24.2949 57.8538 24.4557 57.4899 24.4726 57.1006C24.4896 56.7113 24.3372 56.3643 24.0156 56.0596C23.7278 55.7549 23.3724 55.6025 22.9492 55.6025C22.526 55.5856 22.1705 55.7295 21.8828 56.0342L19.623 58.3193C19.3014 58.6579 19.1321 59.0133 19.1152 59.3857C19.1152 59.7751 19.2676 60.1221 19.5722 60.4268ZM15.2051 54.3076C15.4082 54.6631 15.7129 54.9001 16.1191 55.0186C16.5254 55.1201 16.9062 55.0693 17.2617 54.8662L25.4375 50.1436C25.8268 49.9235 26.0722 49.6188 26.1738 49.2295C26.2754 48.8232 26.2246 48.4424 26.0215 48.0869C25.8014 47.7145 25.4883 47.4775 25.082 47.376C24.6927 47.2575 24.3118 47.3083 23.9394 47.5283L15.7636 52.251C15.3913 52.4541 15.1543 52.7588 15.0527 53.165C14.9511 53.5544 15.0019 53.9352 15.2051 54.3076ZM12.082 47.4775C12.1836 47.8838 12.4205 48.1885 12.7929 48.3916C13.1653 48.5778 13.5462 48.6286 13.9355 48.5439L17.084 47.7568C17.5071 47.6383 17.8203 47.4098 18.0234 47.0713C18.2265 46.7158 18.2689 46.3265 18.1504 45.9033C18.0319 45.4971 17.7949 45.1924 17.4394 44.9893C17.084 44.7692 16.6946 44.71 16.2715 44.8115L13.2246 45.6494C12.7506 45.7848 12.4121 46.0303 12.209 46.3857C12.0228 46.7243 11.9804 47.0882 12.082 47.4775ZM11.3711 39.9873C11.3711 40.4105 11.515 40.7744 11.8027 41.0791C12.1074 41.3669 12.4713 41.5107 12.8945 41.5107H22.3144C22.7545 41.5107 23.1185 41.3669 23.4062 41.0791C23.694 40.7744 23.8379 40.4105 23.8379 39.9873C23.8379 39.5641 23.694 39.2087 23.4062 38.9209C23.1185 38.6331 22.7545 38.4893 22.3144 38.4893H12.8945C12.4713 38.4893 12.1074 38.6331 11.8027 38.9209C11.515 39.2087 11.3711 39.5641 11.3711 39.9873ZM12.0566 32.5225C11.972 32.9287 12.0397 33.3096 12.2597 33.665C12.4798 34.0205 12.776 34.2575 13.1484 34.376L16.2715 35.2646C16.6946 35.3662 17.084 35.3154 17.4394 35.1123C17.8118 34.9092 18.0403 34.596 18.125 34.1729C18.2265 33.7666 18.1842 33.3773 17.998 33.0049C17.8118 32.6325 17.5071 32.3955 17.084 32.2939L13.9609 31.5068C13.5039 31.3883 13.0892 31.4307 12.7168 31.6338C12.3613 31.8369 12.1413 32.1331 12.0566 32.5225ZM15.2304 25.667C15.0104 26.0394 14.9511 26.4287 15.0527 26.835C15.1543 27.2243 15.3913 27.529 15.7636 27.749L23.9394 32.4717C24.3118 32.6917 24.6927 32.751 25.082 32.6494C25.4883 32.5309 25.8014 32.2939 26.0215 31.9385C26.2246 31.5661 26.2754 31.1768 26.1738 30.7705C26.0722 30.3643 25.8268 30.0596 25.4375 29.8564L17.2617 25.1338C16.9062 24.9307 16.5254 24.8799 16.1191 24.9814C15.7298 25.083 15.4336 25.3115 15.2304 25.667ZM19.5469 19.5732C19.2422 19.861 19.0983 20.2165 19.1152 20.6396C19.1491 21.0628 19.3014 21.4183 19.5722 21.7061L21.832 23.9912C22.1536 24.3128 22.5091 24.4821 22.8984 24.499C23.3047 24.499 23.6686 24.3382 23.9902 24.0166C24.278 23.7288 24.4219 23.3818 24.4219 22.9756C24.4388 22.5524 24.2864 22.18 23.9648 21.8584L21.7051 19.5986C21.3834 19.2601 21.0195 19.0993 20.6133 19.1162C20.2239 19.1162 19.8685 19.2686 19.5469 19.5732ZM25.6914 15.1807C25.3359 15.4007 25.0989 15.7139 24.9804 16.1201C24.8789 16.5094 24.9381 16.8903 25.1582 17.2627L29.8554 25.4385C30.0755 25.8109 30.3802 26.0563 30.7695 26.1748C31.1758 26.2764 31.5566 26.2171 31.9121 25.9971C32.2845 25.7939 32.5215 25.4977 32.623 25.1084C32.7415 24.7021 32.6907 24.3128 32.4707 23.9404L27.748 15.7393C27.528 15.3838 27.2233 15.1553 26.834 15.0537C26.4446 14.9352 26.0638 14.9775 25.6914 15.1807ZM32.4961 12.0576C32.0729 12.1423 31.7597 12.3623 31.5566 12.7178C31.3704 13.0563 31.3366 13.4626 31.4551 13.9365L32.2929 17.1357C32.3945 17.5251 32.623 17.8128 32.9785 17.999C33.3509 18.1852 33.7741 18.2106 34.248 18.0752C34.7051 17.9398 35.0097 17.7113 35.1621 17.3896C35.3314 17.0511 35.3567 16.6787 35.2383 16.2725L34.3496 13.2002C34.2311 12.7432 33.9941 12.4215 33.6386 12.2354C33.3001 12.0322 32.9192 11.973 32.4961 12.0576Z" fill="black"/>
</svg>
