<svg width="120" height="36" viewBox="0 0 120 36" fill="none" xmlns="http://www.w3.org/2000/svg">
<g clip-path="url(#clip0_1_1199)">
<g clip-path="url(#clip1_1_1199)">
<path d="M10.4266 36C4.74582 36 0.140625 31.3948 0.140625 25.714V10.286C0.140625 4.6052 4.74582 0 10.4266 0H25.8546C31.5354 0 36.1406 4.6052 36.1406 10.286V25.714C36.1406 31.3948 31.5354 36 25.8546 36H10.4266Z" fill="black"/>
<path d="M12.6971 16.1592C12.6751 15.9052 12.8631 15.6832 13.1171 15.6672C14.0111 15.6082 16.0771 15.4912 18.1421 15.4912C20.2081 15.4912 22.2731 15.6082 23.1671 15.6672C23.4211 15.6832 23.6101 15.9052 23.5881 16.1592L22.9291 23.7382C22.8071 25.1402 21.6441 26.2212 20.2361 26.2232C19.6261 26.2242 18.9211 26.2242 18.1421 26.2202C17.3951 26.2162 16.7161 26.2162 16.1221 26.2172C14.6841 26.2192 13.4751 25.1242 13.3501 23.6912L12.6971 16.1592Z" fill="white"/>
<path d="M13.0713 10.3214C12.4933 10.4894 12.1273 10.9924 11.9973 11.5794L11.4173 14.2064C11.3513 14.5054 11.5893 14.7844 11.8953 14.7664C12.9933 14.7014 15.4433 14.5764 18.1423 14.5764C20.8413 14.5764 23.2913 14.7014 24.3903 14.7664C24.6953 14.7844 24.9333 14.5054 24.8673 14.2064L24.2883 11.5794C24.1583 10.9924 23.7913 10.4894 23.2133 10.3214C22.3553 10.0724 20.7833 9.77637 18.1423 9.77637C15.5023 9.77637 13.9293 10.0724 13.0713 10.3214Z" fill="white"/>
</g>
<path d="M55.1414 26.293C50.1961 26.293 47.0906 22.9883 47.0906 17.5391V17.5273C47.0906 12.0781 50.2078 8.79688 55.1414 8.79688C59.243 8.79688 62.1844 11.3867 62.5125 14.9727L62.5242 15.0781H59.0789L59.032 14.8789C58.6336 13.0156 57.2508 11.7969 55.1414 11.7969C52.4344 11.7969 50.7 13.9766 50.7 17.5156V17.5273C50.7 21.0898 52.4344 23.293 55.1414 23.293C57.1805 23.293 58.6102 22.1211 59.0672 20.1172L59.0906 20H62.5359L62.5242 20.1289C62.1961 23.7266 59.2313 26.293 55.1414 26.293ZM70.2 26.2578C66.3797 26.2578 63.9773 23.8086 63.9773 19.7188V19.6953C63.9773 15.6523 66.4383 13.1797 70.1883 13.1797C73.95 13.1797 76.4227 15.6289 76.4227 19.6953V19.7188C76.4227 23.8203 73.9969 26.2578 70.2 26.2578ZM70.2117 23.5742C71.8758 23.5742 72.9422 22.168 72.9422 19.7188V19.6953C72.9422 17.2695 71.8523 15.8633 70.1883 15.8633C68.5359 15.8633 67.4578 17.2695 67.4578 19.6953V19.7188C67.4578 22.1797 68.5242 23.5742 70.2117 23.5742ZM79.1063 26V16.0156H77.3953V13.4375H79.1063V12.4297C79.1063 9.96875 80.2781 8.83203 83.243 8.83203C83.8758 8.83203 84.5672 8.89062 84.9656 8.97266V11.2344C84.7313 11.1875 84.4031 11.1758 84.0867 11.1758C82.95 11.1758 82.4461 11.6562 82.4461 12.5586V13.4375H84.9422V16.0156H82.5281V26H79.1063ZM87.6609 26V16.0156H85.95V13.4375H87.6609V12.4297C87.6609 9.96875 88.8328 8.83203 91.7977 8.83203C92.4305 8.83203 93.1219 8.89062 93.5203 8.97266V11.2344C93.2859 11.1875 92.9578 11.1758 92.6414 11.1758C91.5047 11.1758 91.0008 11.6562 91.0008 12.5586V13.4375H93.4969V16.0156H91.0828V26H87.6609ZM100.13 26.2578C96.2859 26.2578 93.9539 23.7617 93.9539 19.7422V19.7305C93.9539 15.7344 96.3094 13.1797 99.9891 13.1797C103.669 13.1797 105.977 15.6758 105.977 19.4727V20.5273H97.3289C97.3641 22.5312 98.4539 23.7031 100.2 23.7031C101.606 23.7031 102.462 22.9297 102.708 22.2266L102.731 22.1562H105.872L105.837 22.2852C105.45 24.1367 103.716 26.2578 100.13 26.2578ZM100.048 15.7344C98.6414 15.7344 97.5867 16.6719 97.3641 18.3711H102.696C102.485 16.6367 101.466 15.7344 100.048 15.7344ZM113.466 26.2578C109.622 26.2578 107.29 23.7617 107.29 19.7422V19.7305C107.29 15.7344 109.645 13.1797 113.325 13.1797C117.005 13.1797 119.313 15.6758 119.313 19.4727V20.5273H110.665C110.7 22.5312 111.79 23.7031 113.536 23.7031C114.942 23.7031 115.798 22.9297 116.044 22.2266L116.067 22.1562H119.208L119.173 22.2852C118.786 24.1367 117.052 26.2578 113.466 26.2578ZM113.384 15.7344C111.977 15.7344 110.923 16.6719 110.7 18.3711H116.032C115.821 16.6367 114.802 15.7344 113.384 15.7344Z" fill="black"/>
</g>
<defs>
<clipPath id="clip0_1_1199">
<rect width="120" height="36" fill="white"/>
</clipPath>
<clipPath id="clip1_1_1199">
<rect width="36" height="36" fill="white" transform="translate(0.140625)"/>
</clipPath>
</defs>
</svg>
